<svg width="40" height="40" viewBox="0 0 40 40" fill="none" xmlns="http://www.w3.org/2000/svg">
<rect width="40" height="40" rx="12" fill="white"/>
<path d="M28 30H14C12.3432 30 11 28.6569 11 27V13C11 11.3432 12.3432 10 14 10H28C28.5523 10 29 10.4477 29 11V29C29 29.5523 28.5523 30 28 30ZM27 28V26H14C13.4477 26 13 26.4477 13 27C13 27.5523 13.4477 28 14 28H27ZM13 24.1707C13.3128 24.0602 13.6494 24 14 24H27V12H14C13.4477 12 13 12.4477 13 13V24.1707ZM20 18C18.8954 18 18 17.1046 18 16C18 14.8954 18.8954 14 20 14C21.1046 14 22 14.8954 22 16C22 17.1046 21.1046 18 20 18ZM17 22C17 20.3431 18.3431 19 20 19C21.6569 19 23 20.3431 23 22H17Z" fill="#3A72D4"/>
</svg>
